<svg width="210" height="40" viewBox="0 0 210 40" fill="none" xmlns="http://www.w3.org/2000/svg">
<path d="M162.284 19.806V22.62H163.446V19.806H162.284ZM167.898 13.436V23.068H169.06V13.436H167.898ZM160.422 24.86V25.812H169.368V24.86H160.422ZM160.422 22.13V25.126H161.584V22.13H160.422ZM158.784 20.24C161.08 20.24 164.146 20.198 166.876 19.764L166.792 18.91C164.104 19.26 160.968 19.288 158.63 19.288L158.784 20.24ZM165.322 20.912V21.766H168.192V20.912H165.322ZM162.746 13.954C160.884 13.954 159.624 14.822 159.624 16.152C159.624 17.496 160.884 18.364 162.746 18.364C164.594 18.364 165.854 17.496 165.854 16.152C165.854 14.822 164.594 13.954 162.746 13.954ZM162.746 14.822C163.922 14.822 164.748 15.34 164.748 16.152C164.748 16.964 163.922 17.482 162.746 17.482C161.556 17.482 160.73 16.964 160.73 16.152C160.73 15.34 161.556 14.822 162.746 14.822ZM172.377 22.088V23.054H173.385C175.793 23.054 177.473 22.984 179.461 22.634L179.349 21.696C177.403 22.018 175.751 22.088 173.385 22.088H172.377ZM172.377 14.584V22.424H173.525V15.55H178.509V14.584H172.377ZM173.245 18.126V19.064H178.047V18.126H173.245ZM180.791 13.436V26.092H181.953V13.436H180.791ZM185.9 19.498V20.45H194.594V19.498H185.9ZM184.458 23.418V24.384H195.924V23.418H184.458ZM185.9 14.598V19.918H187.062V15.564H194.468V14.598H185.9ZM206.535 13.436V20.604H207.697V13.436H206.535ZM198.121 14.164V19.316H199.269V14.164H198.121ZM198.121 18.672V19.652H199.143C201.327 19.652 203.231 19.512 205.331 19.064L205.163 18.112C203.147 18.532 201.257 18.672 199.143 18.672H198.121ZM199.521 21.22V25.924H207.697V21.22H199.521ZM206.563 22.144V24.972H200.655V22.144H206.563Z" fill="#3A474E"/>
<circle cx="128" cy="20" r="19.5" fill="#EDEFF1" stroke="#D1D8DC"/>
<path fill-rule="evenodd" clip-rule="evenodd" d="M125 14C125 12.3431 126.343 11 128 11C129.657 11 131 12.3431 131 14C131 15.6569 129.657 17 128 17C126.343 17 125 15.6569 125 14ZM128 9C125.239 9 123 11.2386 123 14C123 16.7614 125.239 19 128 19C130.761 19 133 16.7614 133 14C133 11.2386 130.761 9 128 9ZM124 21C122.674 21 121.402 21.5268 120.464 22.4645C119.527 23.4021 119 24.6739 119 26V28C119 28.5523 119.448 29 120 29C120.552 29 121 28.5523 121 28V26C121 25.2043 121.316 24.4413 121.879 23.8787C122.441 23.3161 123.204 23 124 23H132C132.796 23 133.559 23.3161 134.121 23.8787C134.684 24.4413 135 25.2044 135 26V28C135 28.5523 135.448 29 136 29C136.552 29 137 28.5523 137 28V26C137 24.6739 136.473 23.4021 135.536 22.4645C134.598 21.5268 133.326 21 132 21H124Z" fill="#94A2AD"/>
<path fill-rule="evenodd" clip-rule="evenodd" d="M65.2929 10.2929C65.4804 10.1054 65.7348 10 66 10C66.2652 10 66.5196 10.1054 66.7071 10.2929C66.8946 10.4804 67 10.7348 67 11V11.09L67 11.094C67.0021 11.6108 67.1552 12.1157 67.4406 12.5466C67.7249 12.976 68.1282 13.3132 68.6011 13.517C69.0843 13.7291 69.6198 13.7921 70.139 13.698C70.66 13.6035 71.1407 13.3551 71.5193 12.9849L71.5193 12.9849L71.5271 12.9771L71.5871 12.9171L71.5875 12.9167C71.6804 12.8237 71.7907 12.75 71.9121 12.6997C72.0335 12.6493 72.1636 12.6234 72.295 12.6234C72.4264 12.6234 72.5565 12.6493 72.6779 12.6997C72.7993 12.75 72.9096 12.8237 73.0025 12.9167L73.0033 12.9175C73.0963 13.0104 73.17 13.1207 73.2203 13.2421C73.2707 13.3635 73.2966 13.4936 73.2966 13.625C73.2966 13.7564 73.2707 13.8865 73.2203 14.0079C73.17 14.1293 73.0963 14.2396 73.0033 14.3325L73.0029 14.3329L72.9429 14.3929L72.9428 14.3929L72.9351 14.4007C72.5649 14.7793 72.3165 15.26 72.222 15.781C72.14 16.2333 72.1773 16.698 72.3284 17.1296C72.3403 17.2204 72.3646 17.3094 72.4009 17.3939C72.6045 17.869 72.9425 18.2741 73.3734 18.5594C73.8043 18.8448 74.3092 18.9979 74.826 19L74.83 19H75C75.2652 19 75.5196 19.1054 75.7071 19.2929C75.8946 19.4804 76 19.7348 76 20C76 20.2652 75.8946 20.5196 75.7071 20.7071C75.5196 20.8946 75.2652 21 75 21L74.91 21L74.906 21C74.3892 21.0021 73.8843 21.1552 73.4534 21.4406C73.024 21.725 72.6867 22.1283 72.4829 22.6012C72.2709 23.0843 72.2079 23.6198 72.302 24.139C72.3965 24.66 72.6449 25.1407 73.0151 25.5193L73.0151 25.5193L73.0229 25.5271L73.0829 25.5871L73.0833 25.5875C73.1763 25.6804 73.25 25.7907 73.3003 25.9121C73.3507 26.0335 73.3766 26.1636 73.3766 26.295C73.3766 26.4264 73.3507 26.5565 73.3003 26.6779C73.25 26.7993 73.1763 26.9096 73.0833 27.0025L73.0825 27.0033C72.9896 27.0963 72.8793 27.17 72.7579 27.2203C72.6365 27.2707 72.5064 27.2966 72.375 27.2966C72.2436 27.2966 72.1135 27.2707 71.9921 27.2203C71.8707 27.17 71.7604 27.0963 71.6675 27.0033L71.6671 27.0029L71.6071 26.9429L71.6071 26.9429L71.5993 26.9351C71.2207 26.5649 70.74 26.3165 70.219 26.222C69.6998 26.1279 69.1643 26.1909 68.6812 26.4029C68.2083 26.6067 67.805 26.944 67.5206 27.3734C67.2352 27.8043 67.0821 28.3092 67.08 28.826L67.08 28.83V29C67.08 29.2652 66.9746 29.5196 66.7871 29.7071C66.5996 29.8946 66.3452 30 66.08 30C65.8148 30 65.5604 29.8946 65.3729 29.7071C65.1854 29.5196 65.08 29.2652 65.08 29V28.91L65.0797 28.8866C65.0673 28.355 64.8952 27.8395 64.5859 27.407C64.2827 26.983 63.8613 26.6581 63.3748 26.4725C62.898 26.2689 62.3716 26.2095 61.861 26.302C61.34 26.3965 60.8593 26.6449 60.4807 27.0151L60.4807 27.0151L60.4729 27.0229L60.4129 27.0829L60.4125 27.0833C60.3196 27.1763 60.2093 27.25 60.0879 27.3003C59.9665 27.3507 59.8364 27.3766 59.705 27.3766C59.5736 27.3766 59.4435 27.3507 59.3221 27.3003C59.2007 27.25 59.0904 27.1763 58.9975 27.0833L58.9967 27.0825C58.9037 26.9896 58.83 26.8793 58.7797 26.7579C58.7293 26.6365 58.7034 26.5064 58.7034 26.375C58.7034 26.2436 58.7293 26.1135 58.7797 25.9921C58.83 25.8707 58.9037 25.7604 58.9967 25.6675L58.9971 25.6671L59.0571 25.6071L59.0571 25.6072L59.0649 25.5993C59.4351 25.2207 59.6835 24.74 59.778 24.219C59.8721 23.6998 59.8091 23.1643 59.597 22.6811C59.3932 22.2082 59.056 21.8049 58.6266 21.5206C58.1957 21.2352 57.6908 21.0821 57.174 21.08V21.08H57.17H57C56.7348 21.08 56.4804 20.9746 56.2929 20.7871C56.1054 20.5996 56 20.3452 56 20.08C56 19.8148 56.1054 19.5604 56.2929 19.3729C56.4804 19.1854 56.7348 19.08 57 19.08H57.09L57.1134 19.0797C57.645 19.0673 58.1605 18.8952 58.593 18.5859C59.017 18.2827 59.3419 17.8613 59.5275 17.3748C59.7311 16.898 59.7905 16.3716 59.698 15.861C59.6035 15.34 59.3551 14.8593 58.9849 14.4807L58.9849 14.4807L58.9771 14.4729L58.9171 14.4129L58.9167 14.4125C58.8237 14.3196 58.75 14.2093 58.6997 14.0879C58.6493 13.9665 58.6234 13.8364 58.6234 13.705C58.6234 13.5736 58.6493 13.4435 58.6997 13.3221C58.75 13.2007 58.8237 13.0904 58.9167 12.9975L58.9175 12.9967C59.0104 12.9037 59.1207 12.83 59.2421 12.7797C59.3635 12.7293 59.4936 12.7034 59.625 12.7034C59.7564 12.7034 59.8865 12.7293 60.0079 12.7797C60.1293 12.83 60.2396 12.9037 60.3325 12.9967L60.3329 12.9971L60.3929 13.0571L60.3928 13.0571L60.4007 13.0649C60.7793 13.4351 61.26 13.6835 61.781 13.778C62.2333 13.86 62.698 13.8227 63.1296 13.6716C63.2204 13.6597 63.3094 13.6354 63.3939 13.5991C63.869 13.3956 64.2741 13.0575 64.5594 12.6266C64.8448 12.1957 64.9979 11.6908 65 11.174H65V11.17V11C65 10.7348 65.1054 10.4804 65.2929 10.2929ZM74.3149 23.4038L73.4 23L74.3191 23.3939C74.3691 23.2774 74.452 23.178 74.5577 23.1081C74.663 23.0383 74.7863 23.0008 74.9125 23H75C75.7957 23 76.5587 22.6839 77.1213 22.1213C77.6839 21.5587 78 20.7957 78 20C78 19.2043 77.6839 18.4413 77.1213 17.8787C76.5587 17.3161 75.7957 17 75 17H74.8325C74.7063 16.9992 74.583 16.9617 74.4777 16.8919C74.4068 16.845 74.3461 16.7848 74.2988 16.7151C74.2845 16.6469 74.2631 16.5803 74.2349 16.5162C74.1824 16.3974 74.1668 16.2656 74.19 16.1378C74.2129 16.0114 74.2727 15.8947 74.3619 15.8023L74.4167 15.7475L74.4171 15.7471C74.6959 15.4686 74.917 15.1378 75.0679 14.7738C75.2189 14.4096 75.2966 14.0192 75.2966 13.625C75.2966 13.2308 75.2189 12.8404 75.0679 12.4762C74.9171 12.1123 74.6961 11.7817 74.4175 11.5033C74.1389 11.2244 73.808 11.0031 73.4438 10.8521C73.0796 10.7011 72.6892 10.6234 72.295 10.6234C71.9008 10.6234 71.5104 10.7011 71.1462 10.8521C70.782 11.0031 70.4511 11.2244 70.1725 11.5033L70.1177 11.5581C70.0253 11.6473 69.9086 11.7071 69.7822 11.73C69.6544 11.7532 69.5226 11.7376 69.4038 11.6851L69.4038 11.6851L69.3939 11.6809C69.2774 11.6309 69.178 11.548 69.1081 11.4423C69.0383 11.337 69.0008 11.2137 69 11.0875V11C69 10.2043 68.6839 9.44129 68.1213 8.87868C67.5587 8.31607 66.7956 8 66 8C65.2044 8 64.4413 8.31607 63.8787 8.87868C63.3161 9.44129 63 10.2043 63 11V11.1675C62.9992 11.2937 62.9617 11.417 62.8919 11.5223C62.845 11.5932 62.7848 11.6539 62.7151 11.7012C62.6469 11.7155 62.5803 11.7369 62.5162 11.7651C62.3974 11.8176 62.2656 11.8332 62.1378 11.81C62.0114 11.7871 61.8947 11.7273 61.8023 11.6381L61.7475 11.5833C61.4689 11.3044 61.138 11.0831 60.7738 10.9321C60.4096 10.7811 60.0192 10.7034 59.625 10.7034C59.2308 10.7034 58.8404 10.7811 58.4762 10.9321C58.1122 11.083 57.7814 11.3041 57.5029 11.5829C57.2241 11.8614 57.003 12.1922 56.8521 12.5562C56.7011 12.9204 56.6234 13.3108 56.6234 13.705C56.6234 14.0992 56.7011 14.4896 56.8521 14.8538C57.0031 15.218 57.2244 15.5489 57.5033 15.8275L57.5581 15.8823C57.6473 15.9747 57.7071 16.0914 57.73 16.2178C57.7532 16.3456 57.7376 16.4774 57.6851 16.5962C57.6766 16.6155 57.6687 16.635 57.6615 16.6548C57.6164 16.7772 57.5356 16.8833 57.4296 16.9591C57.3259 17.0333 57.2028 17.0753 57.0756 17.08H57C56.2043 17.08 55.4413 17.3961 54.8787 17.9587C54.3161 18.5213 54 19.2844 54 20.08C54 20.8756 54.3161 21.6387 54.8787 22.2013C55.4413 22.7639 56.2043 23.08 57 23.08H57.1675C57.2937 23.0808 57.417 23.1183 57.5223 23.1881C57.628 23.258 57.7109 23.3574 57.7609 23.4739L57.7608 23.474L57.7651 23.4838C57.8176 23.6026 57.8332 23.7344 57.81 23.8622C57.7871 23.9886 57.7273 24.1053 57.6381 24.1977L57.5833 24.2525C57.3044 24.5311 57.0831 24.862 56.9321 25.2262C56.7811 25.5904 56.7034 25.9808 56.7034 26.375C56.7034 26.7692 56.7811 27.1596 56.9321 27.5238C57.0831 27.888 57.3044 28.2189 57.5833 28.4975C57.8617 28.7761 58.1923 28.9971 58.5562 29.1479C58.9204 29.2989 59.3108 29.3766 59.705 29.3766C60.0992 29.3766 60.4896 29.2989 60.8538 29.1479C61.2178 28.997 61.5486 28.7759 61.8271 28.4971L61.8275 28.4967L61.8823 28.4419C61.9747 28.3527 62.0914 28.2929 62.2178 28.27C62.3456 28.2468 62.4774 28.2624 62.5962 28.3149C62.6155 28.3234 62.635 28.3313 62.6548 28.3385C62.7772 28.3836 62.8833 28.4644 62.9591 28.5704C63.0333 28.6741 63.0753 28.7972 63.08 28.9244V29C63.08 29.7957 63.3961 30.5587 63.9587 31.1213C64.5213 31.6839 65.2843 32 66.08 32C66.8757 32 67.6387 31.6839 68.2013 31.1213C68.7639 30.5587 69.08 29.7957 69.08 29V28.8325C69.0808 28.7063 69.1183 28.583 69.1881 28.4777C69.258 28.372 69.3574 28.2891 69.4739 28.2391L69.474 28.2392L69.4838 28.2349C69.6026 28.1824 69.7344 28.1668 69.8622 28.19C69.9886 28.2129 70.1053 28.2727 70.1977 28.3619L70.2525 28.4167L70.2529 28.4171C70.5314 28.6959 70.8622 28.917 71.2262 29.0679C71.5904 29.2189 71.9808 29.2966 72.375 29.2966C72.7692 29.2966 73.1596 29.2189 73.5238 29.0679C73.8878 28.917 74.2186 28.6959 74.4971 28.4171C74.497 28.4172 74.4968 28.4174 74.4967 28.4175L73.79 27.71L74.4975 28.4167C74.4974 28.4168 74.4972 28.417 74.4971 28.4171C74.7759 28.1386 74.997 27.8078 75.1479 27.4438C75.2989 27.0796 75.3766 26.6892 75.3766 26.295C75.3766 25.9008 75.2989 25.5104 75.1479 25.1462C74.997 24.7822 74.7758 24.4514 74.4971 24.1729L74.4967 24.1725L74.4419 24.1177C74.3527 24.0253 74.2929 23.9086 74.27 23.7822C74.2468 23.6544 74.2624 23.5226 74.3149 23.4038ZM64 20C64 18.8954 64.8954 18 66 18C67.1046 18 68 18.8954 68 20C68 21.1046 67.1046 22 66 22C64.8954 22 64 21.1046 64 20ZM66 16C63.7909 16 62 17.7909 62 20C62 22.2091 63.7909 24 66 24C68.2091 24 70 22.2091 70 20C70 17.7909 68.2091 16 66 16Z" fill="#3A474E"/>
<path fill-rule="evenodd" clip-rule="evenodd" d="M12 9C10.1435 9 8.36301 9.7375 7.05025 11.0503C5.7375 12.363 5 14.1435 5 16C5 19.3527 4.28293 21.4346 3.62211 22.6461C3.29031 23.2544 2.96723 23.6535 2.7428 23.8904C2.63032 24.0091 2.54194 24.0878 2.48872 24.1322C2.4621 24.1544 2.44425 24.168 2.43655 24.1737L2.43369 24.1758C2.07521 24.4221 1.91657 24.8725 2.04291 25.2898C2.17061 25.7115 2.55933 26 3 26H21C21.4407 26 21.8294 25.7115 21.9571 25.2898C22.0834 24.8725 21.9248 24.4221 21.5663 24.1758L21.5635 24.1737C21.5558 24.168 21.5379 24.1544 21.5113 24.1322C21.4581 24.0878 21.3697 24.0091 21.2572 23.8904C21.0328 23.6535 20.7097 23.2544 20.3779 22.6461C19.7171 21.4346 19 19.3527 19 16C19 14.1435 18.2625 12.363 16.9497 11.0503C15.637 9.7375 13.8565 9 12 9ZM18.6221 23.6039C18.6982 23.7434 18.7746 23.8753 18.8507 24H5.14933C5.22541 23.8753 5.3018 23.7434 5.3779 23.6039C6.21707 22.0654 7 19.6473 7 16C7 14.6739 7.52679 13.4021 8.46447 12.4645C9.40215 11.5268 10.6739 11 12 11C13.3261 11 14.5979 11.5268 15.5355 12.4645C16.4732 13.4021 17 14.6739 17 16C17 19.6473 17.7829 22.0654 18.6221 23.6039ZM11.135 28.4982C10.8579 28.0205 10.246 27.8579 9.76825 28.135C9.29052 28.4121 9.1279 29.024 9.40502 29.5018C9.66874 29.9564 10.0473 30.3337 10.5027 30.5961C10.9581 30.8584 11.4745 30.9965 12 30.9965C12.5256 30.9965 13.0419 30.8584 13.4974 30.5961C13.9528 30.3337 14.3313 29.9564 14.595 29.5018C14.8721 29.024 14.7095 28.4121 14.2318 28.135C13.7541 27.8579 13.1421 28.0205 12.865 28.4982C12.7771 28.6498 12.6509 28.7756 12.4991 28.863C12.3473 28.9504 12.1752 28.9965 12 28.9965C11.8248 28.9965 11.6527 28.9504 11.5009 28.863C11.3491 28.7756 11.2229 28.6498 11.135 28.4982Z" fill="#3A474E"/>
<circle cx="23.5" cy="8.5" r="2.5" transform="rotate(-180 23.5 8.5)" fill="#EA3A4B"/>
</svg>
